<?xml version="1.0" standalone="no"?>
<!DOCTYPE svg PUBLIC "-//W3C//DTD SVG 20010904//EN"
 "http://www.w3.org/TR/2001/REC-SVG-20010904/DTD/svg10.dtd">
<svg version="1.0" xmlns="http://www.w3.org/2000/svg"
 width="400.000000pt" height="400.000000pt" viewBox="0 0 400.000000 400.000000"
 preserveAspectRatio="xMidYMid meet">
<metadata>
Created by potrace 1.11, written by Peter Selinger 2001-2013
</metadata>
<g transform="translate(0.000000,400.000000) scale(0.100000,-0.100000)"
fill="#000000" stroke="none">
<path d="M2250 3130 l0 -40 -85 0 -85 0 0 -45 0 -45 -85 0 -85 0 0 -40 0 -40
-80 0 -80 0 0 -40 0 -40 -85 0 -85 0 0 -45 0 -45 -85 0 -85 0 0 -40 0 -40 -80
0 -80 0 0 -40 0 -40 -85 0 -85 0 0 -45 0 -45 -85 0 -85 0 0 -40 0 -40 -80 0
-80 0 0 -40 0 -40 -45 0 -45 0 0 -125 0 -125 45 0 45 0 0 -85 0 -85 -45 0 -45
0 0 -85 0 -85 45 0 45 0 0 -125 0 -125 40 0 40 0 0 -125 0 -125 40 0 40 0 0
-40 0 -40 85 0 85 0 0 -40 0 -40 85 0 85 0 0 -45 0 -45 80 0 80 0 0 -40 0 -40
85 0 85 0 0 -40 0 -40 85 0 85 0 0 -45 0 -45 80 0 80 0 0 45 0 45 45 0 45 0 0
40 0 40 80 0 80 0 0 40 0 40 45 0 45 0 0 45 0 45 80 0 80 0 0 40 0 40 45 0 45
0 0 40 0 40 80 0 80 0 0 45 0 45 45 0 45 0 0 40 0 40 80 0 80 0 0 40 0 40 45
0 45 0 0 45 0 45 80 0 80 0 0 40 0 40 45 0 45 0 0 40 0 40 40 0 40 0 0 85 0
85 -40 0 -40 0 0 40 0 40 40 0 40 0 0 45 0 45 -85 0 -85 0 0 40 0 40 45 0 45
0 0 40 0 40 40 0 40 0 0 45 0 45 -40 0 -40 0 0 40 0 40 40 0 40 0 0 125 0 125
-40 0 -40 0 0 40 0 40 -85 0 -85 0 0 45 0 45 -85 0 -85 0 0 40 0 40 -80 0 -80
0 0 40 0 40 -85 0 -85 0 0 45 0 45 -85 0 -85 0 0 40 0 40 -80 0 -80 0 0 -40z
m160 -85 l0 -45 85 0 85 0 0 -40 0 -40 85 0 85 0 0 -40 0 -40 80 0 80 0 0 -45
0 -45 85 0 85 0 0 -40 0 -40 85 0 85 0 0 -85 0 -85 -45 0 -45 0 0 -40 0 -40
-80 0 -80 0 0 -40 0 -40 -45 0 -45 0 0 -45 0 -45 85 0 85 0 0 45 0 45 85 0 85
0 0 -45 0 -45 -85 0 -85 0 0 -40 0 -40 -40 0 -40 0 0 -40 0 -40 80 0 80 0 0
-45 0 -45 -40 0 -40 0 0 -40 0 -40 85 0 85 0 0 -85 0 -85 -45 0 -45 0 0 -40 0
-40 -80 0 -80 0 0 -40 0 -40 -45 0 -45 0 0 -45 0 -45 -80 0 -80 0 0 -40 0 -40
-45 0 -45 0 0 -40 0 -40 -80 0 -80 0 0 -45 0 -45 -45 0 -45 0 0 -40 0 -40 -80
0 -80 0 0 -40 0 -40 -45 0 -45 0 0 -45 0 -45 -80 0 -80 0 0 -40 0 -40 -45 0
-45 0 0 -40 0 -40 -80 0 -80 0 0 40 0 40 -85 0 -85 0 0 40 0 40 -85 0 -85 0 0
45 0 45 -80 0 -80 0 0 40 0 40 -85 0 -85 0 0 40 0 40 -85 0 -85 0 0 85 0 85
85 0 85 0 0 40 0 40 -125 0 -125 0 0 125 0 125 -40 0 -40 0 0 85 0 85 40 0 40
0 0 40 0 40 40 0 40 0 0 45 0 45 -80 0 -80 0 0 125 0 125 80 0 80 0 0 40 0 40
85 0 85 0 0 40 0 40 85 0 85 0 0 45 0 45 80 0 80 0 0 40 0 40 85 0 85 0 0 40
0 40 85 0 85 0 0 45 0 45 80 0 80 0 0 40 0 40 85 0 85 0 0 40 0 40 85 0 85 0
0 45 0 45 80 0 80 0 0 -45z"/>
<path d="M2750 2210 l0 -40 -45 0 -45 0 0 -40 0 -40 -80 0 -80 0 0 -45 0 -45
-45 0 -45 0 0 -40 0 -40 -80 0 -80 0 0 -40 0 -40 -45 0 -45 0 0 -45 0 -45 -80
0 -80 0 0 -40 0 -40 -45 0 -45 0 0 -40 0 -40 -80 0 -80 0 0 -45 0 -45 80 0 80
0 0 45 0 45 85 0 85 0 0 -45 0 -45 -40 0 -40 0 0 -40 0 -40 -85 0 -85 0 0 -40
0 -40 -85 0 -85 0 0 40 0 40 -80 0 -80 0 0 40 0 40 -85 0 -85 0 0 45 0 45 -85
0 -85 0 0 40 0 40 -80 0 -80 0 0 40 0 40 -45 0 -45 0 0 45 0 45 -40 0 -40 0 0
-45 0 -45 40 0 40 0 0 -40 0 -40 45 0 45 0 0 -40 0 -40 80 0 80 0 0 -45 0 -45
85 0 85 0 0 -40 0 -40 85 0 85 0 0 -40 0 -40 80 0 80 0 0 -45 0 -45 45 0 45 0
0 -40 0 -40 -85 0 -85 0 0 40 0 40 -85 0 -85 0 0 45 0 45 -80 0 -80 0 0 40 0
40 -85 0 -85 0 0 -40 0 -40 85 0 85 0 0 -45 0 -45 80 0 80 0 0 -40 0 -40 85 0
85 0 0 -40 0 -40 85 0 85 0 0 -45 0 -45 40 0 40 0 0 45 0 45 85 0 85 0 0 40 0
40 40 0 40 0 0 40 0 40 85 0 85 0 0 45 0 45 40 0 40 0 0 40 0 40 85 0 85 0 0
40 0 40 40 0 40 0 0 45 0 45 85 0 85 0 0 40 0 40 40 0 40 0 0 40 0 40 85 0 85
0 0 45 0 45 40 0 40 0 0 40 0 40 -40 0 -40 0 0 -40 0 -40 -85 0 -85 0 0 -45 0
-45 -40 0 -40 0 0 -40 0 -40 -85 0 -85 0 0 -40 0 -40 -40 0 -40 0 0 -45 0 -45
-85 0 -85 0 0 -40 0 -40 -40 0 -40 0 0 -40 0 -40 -85 0 -85 0 0 -45 0 -45 -40
0 -40 0 0 -40 0 -40 -85 0 -85 0 0 40 0 40 40 0 40 0 0 45 0 45 45 0 45 0 0
40 0 40 80 0 80 0 0 40 0 40 45 0 45 0 0 45 0 45 80 0 80 0 0 40 0 40 45 0 45
0 0 40 0 40 80 0 80 0 0 45 0 45 45 0 45 0 0 40 0 40 80 0 80 0 0 40 0 40 45
0 45 0 0 45 0 45 -85 0 -85 0 0 40 0 40 40 0 40 0 0 40 0 40 -80 0 -80 0 0
-40z m80 -165 l0 -45 -40 0 -40 0 0 -40 0 -40 -85 0 -85 0 0 -40 0 -40 -40 0
-40 0 0 -45 0 -45 -85 0 -85 0 0 -40 0 -40 -40 0 -40 0 0 -40 0 -40 -85 0 -85
0 0 40 0 40 40 0 40 0 0 40 0 40 85 0 85 0 0 45 0 45 40 0 40 0 0 40 0 40 85
0 85 0 0 40 0 40 40 0 40 0 0 45 0 45 85 0 85 0 0 -45z m-1000 -915 l0 -40
-40 0 -40 0 0 40 0 40 40 0 40 0 0 -40z"/>
<path d="M910 1960 l0 -40 45 0 45 0 0 40 0 40 -45 0 -45 0 0 -40z"/>
<path d="M1080 1880 l0 -40 40 0 40 0 0 40 0 40 -40 0 -40 0 0 -40z"/>
<path d="M1250 1795 l0 -45 40 0 40 0 0 45 0 45 -40 0 -40 0 0 -45z"/>
<path d="M1410 1710 l0 -40 45 0 45 0 0 40 0 40 -45 0 -45 0 0 -40z"/>
<path d="M1580 1630 l0 -40 40 0 40 0 0 40 0 40 -40 0 -40 0 0 -40z"/>
</g>
</svg>
